# xmcd
#
# Track frame offsets:
#	150
#	17385
#	32640
#	49665
#
# Disc length: 897 seconds
#
# Revision: 0
# Processed by: cddbd v1.5.2PL0 Copyright (c) Steve Scherf et al.
# Submitted via: audiograbber 1.83.01
#
DISCID=22037f04
DTITLE=Base Project - The Project [CDM/EP)
DYEAR=1996
DGENRE=Dance
TTITLE0=Setting Sun
TTITLE1=Love In The Night
TTITLE2=Feel The Power In My Heart
TTITLE3=Future Land
EXTD=TR.
EXTT0=
EXTT1=
EXTT2=
EXTT3=
PLAYORDER=
